HIERARCHY
ROOT Hips
{
	OFFSET 0.000000 0.000000 0.000000 
	CHANNELS 6 Xposition Yposition Zposition Zrotation Xrotation Yrotation
	JOINT Spine
	{
		OFFSET -0.000000 7.979263 0.000000 
		CHANNELS 3 Zrotation Xrotation Yrotation
		JOINT Spine1
		{
			OFFSET -0.000000 24.719021 0.000000 
			CHANNELS 3 Zrotation Xrotation Yrotation
			JOINT Neck
			{
				OFFSET -0.000000 24.617504 2.237955 
				CHANNELS 3 Zrotation Xrotation Yrotation
				JOINT Head
				{
					OFFSET -0.000000 13.623132 -1.946162 
					CHANNELS 3 Zrotation Xrotation Yrotation
					End Site
					{
						OFFSET -0.000000 24.327021 0.000000 
					}
				}
			}
			JOINT LeftShoulder
			{
				OFFSET 3.885773 23.018444 -0.302444 
				CHANNELS 3 Zrotation Xrotation Yrotation
				JOINT LeftArm
				{
					OFFSET 10.447750 0.000000 0.000000 
					CHANNELS 3 Zrotation Xrotation Yrotation
					JOINT LeftForeArm
					{
						OFFSET 29.090096 0.000000 0.000000 
						CHANNELS 3 Zrotation Xrotation Yrotation
						JOINT LeftHand
						{
							OFFSET 28.893339 0.000000 0.000000 
							CHANNELS 3 Zrotation Xrotation Yrotation
							End Site
							{
								OFFSET 14.596213 0.000000 0.000000 
							}
						}
					}
				}
			}
			JOINT RightShoulder
			{
				OFFSET -3.864586 23.018444 -0.302444 
				CHANNELS 3 Zrotation Xrotation Yrotation
				JOINT RightArm
				{
					OFFSET -10.447750 0.000000 0.000000 
					CHANNELS 3 Zrotation Xrotation Yrotation
					JOINT RightForeArm
					{
						OFFSET -29.090096 0.000000 0.000000 
						CHANNELS 3 Zrotation Xrotation Yrotation
						JOINT RightHand
						{
							OFFSET -28.893339 0.000000 0.000000 
							CHANNELS 3 Zrotation Xrotation Yrotation
							End Site
							{
								OFFSET -14.596213 0.000000 0.000000 
							}
						}
					}
				}
			}
		}
	}
	JOINT LeftUpLeg
	{
		OFFSET 9.730808 0.000000 0.000000 
		CHANNELS 3 Zrotation Xrotation Yrotation
		JOINT LeftLeg
		{
			OFFSET -0.000000 -34.800129 0.000000 
			CHANNELS 3 Zrotation Xrotation Yrotation
			JOINT LeftFoot
			{
				OFFSET -0.000000 -44.597416 0.000000 
				CHANNELS 3 Zrotation Xrotation Yrotation
				JOINT LeftToeBase
				{
					OFFSET -0.000000 -6.325025 14.596213 
					CHANNELS 3 Zrotation Xrotation Yrotation
					End Site
					{
						OFFSET -0.000000 0.000000 3.892323 
					}
				}
			}
		}
	}
	JOINT RightUpLeg
	{
		OFFSET -9.730808 0.000000 0.000000 
		CHANNELS 3 Zrotation Xrotation Yrotation
		JOINT RightLeg
		{
			OFFSET -0.000000 -34.800129 0.000000 
			CHANNELS 3 Zrotation Xrotation Yrotation
			JOINT RightFoot
			{
				OFFSET -0.000000 -44.597416 0.000000 
				CHANNELS 3 Zrotation Xrotation Yrotation
				JOINT RightToeBase
				{
					OFFSET -0.000000 -6.325025 14.596213 
					CHANNELS 3 Zrotation Xrotation Yrotation
					End Site
					{
						OFFSET -0.000000 0.000000 3.892323 
					}
				}
			}
		}
	}
}
MOTION
Frames: 10
Frame Time: 0.008333
0.133072 95.680847 0.151691 -9.856068 -7.435646 88.757797 6.101363 -13.424279 0.256351 3.801752 -7.120701 -0.225766 3.752861 25.744677 6.850881 -7.507856 21.046221 7.824062 5.504827 2.883064 -14.708174 -11.991478 -2.616816 9.338449 -4.336356 4.906410 6.274511 22.470573 3.720468 -7.174766 -9.412356 5.903013 1.510080 8.996552 0.444044 7.058939 -2.642538 -1.799455 -12.175248 -14.434411 -2.810192 5.756035 10.588396 -4.942414 -0.207166 -3.095320 4.131345 -16.212317 -17.032564 12.144403 38.387402 0.000000 0.000000 0.000000 11.010206 -2.514174 1.768568 -5.740845 -6.453016 0.541950 22.633524 38.621822 -24.954824 0.000000 0.000000 0.000000 
0.135361 95.680496 0.151131 -9.853419 -7.435249 88.754066 6.106904 -13.415372 0.261846 3.776905 -7.128789 -0.221675 3.774941 25.743986 6.850152 -7.500070 21.046848 7.825007 5.542040 2.889341 -14.710994 -12.004294 -2.647754 9.346753 -4.348370 4.929265 6.300631 22.491405 3.724280 -7.272008 -9.398105 5.907773 1.503913 8.999917 0.451813 7.057578 -2.643868 -1.819554 -12.179118 -14.596944 -2.841456 5.776734 10.590561 -4.948061 -0.206995 -3.124112 4.067808 -15.410511 -16.908628 12.480997 37.687435 0.000000 0.000000 0.000000 11.014222 -2.503243 1.755502 -5.740845 -6.453016 0.541950 22.601986 38.593994 -24.932632 0.000000 0.000000 0.000000 
0.135239 95.679115 0.150002 -9.854568 -7.434374 88.754654 6.103424 -13.405847 0.256561 3.786738 -7.151206 -0.224872 3.719440 25.748251 6.865563 -7.455866 21.068668 7.835651 5.505743 2.895166 -14.709511 -11.973464 -2.645438 9.368792 -4.342951 4.924846 6.294551 22.420572 3.717762 -7.303344 -9.402631 5.924973 1.512138 8.989374 0.401788 7.062966 -2.636868 -1.781396 -12.196517 -14.445562 -2.791963 5.751088 10.591800 -4.952851 -0.206900 -3.130112 4.067451 -15.342060 -16.890032 12.513303 37.630058 0.000000 0.000000 0.000000 11.012625 -2.504273 1.758836 -5.740845 -6.453016 0.541950 22.591494 38.601250 -24.929638 0.000000 0.000000 0.000000 
0.141104 95.680702 0.145958 -9.826651 -7.436255 88.759583 6.109931 -13.383569 0.252957 3.775841 -7.134942 -0.229249 3.725317 25.707043 6.867482 -7.467056 21.116461 7.840539 5.520308 2.863948 -14.687130 -11.983757 -2.639770 9.371106 -4.344426 4.928852 6.290408 22.427221 3.719965 -7.309982 -9.384933 5.978995 1.510012 8.956531 0.332180 7.070402 -2.623693 -1.806183 -12.191076 -14.610486 -2.824265 5.756230 10.591903 -4.939016 -0.206869 -3.127465 4.108848 -15.466723 -16.902813 12.457253 37.727020 0.000000 0.000000 0.000000 11.012121 -2.477560 1.717690 -5.740845 -6.453016 0.541950 22.622871 38.608013 -24.925257 0.000000 0.000000 0.000000 
0.143538 95.680389 0.144135 -9.824658 -7.434394 88.757431 6.109065 -13.378631 0.255230 3.768047 -7.142266 -0.226848 3.691297 25.692329 6.874049 -7.413744 21.145821 7.843316 5.533720 2.873946 -14.681789 -11.975573 -2.692796 9.368101 -4.349692 4.919744 6.311363 22.449596 3.705506 -7.334723 -9.366210 5.987866 1.508306 8.935391 0.311002 7.060609 -2.618284 -1.760559 -12.194501 -14.395341 -2.762734 5.720962 10.590013 -4.929608 -0.207011 -3.130740 4.100434 -15.474682 -16.894112 12.461197 37.734070 0.000000 0.000000 0.000000 11.003641 -2.470151 1.752715 -5.740845 -6.453016 0.541950 22.628668 38.604271 -24.938080 0.000000 0.000000 0.000000 
0.142992 95.680634 0.142166 -9.830216 -7.431603 88.754723 6.103255 -13.389277 0.260983 3.768442 -7.125703 -0.221445 3.728274 25.688612 6.868380 -7.458059 21.142195 7.842469 5.541952 2.855602 -14.697574 -11.990591 -2.672158 9.396725 -4.322369 4.868276 6.289031 22.364281 3.669554 -7.272847 -9.368426 5.994131 1.489553 8.931975 0.252777 7.067794 -2.608309 -1.743131 -12.196476 -14.394587 -2.745425 5.730118 10.586495 -4.927764 -0.207299 -3.133665 4.085528 -15.463478 -16.894051 12.475308 37.736000 0.000000 0.000000 0.000000 11.005143 -2.475767 1.741493 -5.740845 -6.453016 0.541950 22.614815 38.594677 -24.934145 0.000000 0.000000 0.000000 
0.146227 95.680191 0.141685 -9.829338 -7.432796 88.747093 6.105907 -13.391436 0.261847 3.769092 -7.118142 -0.221319 3.700079 25.685282 6.873176 -7.448480 21.144604 7.844441 5.532747 2.846256 -14.670803 -11.979448 -2.663667 9.385994 -4.324375 4.861905 6.299291 22.360119 3.664251 -7.271285 -9.382771 5.974619 1.497035 8.943268 0.285445 7.053366 -2.610979 -1.759250 -12.184722 -14.395203 -2.761773 5.731728 10.585972 -4.923058 -0.207335 -3.129217 4.089555 -15.445114 -16.901150 12.465906 37.720524 0.000000 0.000000 0.000000 11.007491 -2.475371 1.746030 -5.740845 -6.453016 0.541950 22.615150 38.606224 -24.932487 0.000000 0.000000 0.000000 
0.150621 95.680519 0.142555 -9.819590 -7.440341 88.747604 6.110945 -13.378707 0.267370 3.761049 -7.126084 -0.215805 3.691917 25.674850 6.865985 -7.424106 21.167810 7.836304 5.549731 2.856724 -14.680277 -11.994247 -2.646693 9.391742 -4.345872 4.781643 6.283405 22.562513 3.588001 -7.186716 -9.379346 5.966043 1.481414 8.945953 0.253060 7.049559 -2.603520 -1.732481 -12.181578 -14.382553 -2.735752 5.749705 10.584487 -4.896892 -0.207418 -3.087812 4.156194 -16.257221 -17.034046 12.105897 38.431770 0.000000 0.000000 0.000000 11.015514 -2.470676 1.696382 -5.740845 -6.453016 0.541950 22.626579 38.633926 -24.904158 0.000000 0.000000 0.000000 
0.151903 95.680855 0.142536 -9.825717 -7.441473 88.746483 6.116034 -13.385630 0.268129 3.748515 -7.128088 -0.216822 3.658425 25.677677 6.879762 -7.379603 21.174274 7.846104 5.545662 2.860840 -14.671169 -11.987576 -2.615925 9.388961 -4.347968 4.766717 6.293763 22.557217 3.571655 -7.197927 -9.362582 5.969848 1.486120 8.935152 0.272214 7.038177 -2.604280 -1.750821 -12.175156 -14.389753 -2.753608 5.743383 10.583341 -4.887760 -0.207498 -3.085500 4.123581 -16.222876 -17.045568 12.136806 38.398022 0.000000 0.000000 0.000000 11.017264 -2.473165 1.724193 -5.740845 -6.453016 0.541950 22.607473 38.631710 -24.918869 0.000000 0.000000 0.000000 
0.156397 95.682419 0.140762 -9.823583 -7.442761 88.746284 6.111152 -13.400907 0.266533 3.769008 -7.092593 -0.218601 3.634536 25.682663 6.884741 -7.399734 21.138865 7.847757 5.524275 2.831556 -14.654589 -11.981561 -2.610203 9.388577 -4.348991 4.781677 6.300406 22.541485 3.590846 -7.183563 -9.410811 5.937833 1.492780 8.966460 0.295104 7.025207 -2.606399 -1.769608 -12.169617 -14.394994 -2.773159 5.746625 10.582397 -4.881084 -0.207565 -3.085879 4.118521 -16.197056 -17.026484 12.149762 38.375362 0.000000 0.000000 0.000000 11.016008 -2.462747 1.733366 -5.740845 -6.453016 0.541950 22.619766 38.606487 -24.927700 0.000000 0.000000 0.000000 
